<?xml version="1.0" encoding="UTF-8" standalone="no"?>
<!-- Created with Inkscape (http://www.inkscape.org/) -->

<svg
   xmlns:dc="http://purl.org/dc/elements/1.1/"
   xmlns:cc="http://creativecommons.org/ns#"
   xmlns:rdf="http://www.w3.org/1999/02/22-rdf-syntax-ns#"
   xmlns:svg="http://www.w3.org/2000/svg"
   xmlns="http://www.w3.org/2000/svg"
   xmlns:xlink="http://www.w3.org/1999/xlink"
   xmlns:sodipodi="http://sodipodi.sourceforge.net/DTD/sodipodi-0.dtd"
   xmlns:inkscape="http://www.inkscape.org/namespaces/inkscape"
   width="174.67238mm"
   height="112.17023mm"
   viewBox="0 0 618.91788 397.45359"
   id="svg11221"
   version="1.1"
   inkscape:version="0.91 r13725"
   sodipodi:docname="personal-data.svg">
  <defs
     id="defs11223">
    <filter
       inkscape:collect="always"
       id="filter17812"
       x="-0.013672982"
       width="1.027346"
       y="-0.28330752"
       height="1.566615">
      <feGaussianBlur
         inkscape:collect="always"
         stdDeviation="1.0254857"
         id="feGaussianBlur17814" />
    </filter>
    <radialGradient
       inkscape:collect="always"
       xlink:href="#linearGradient17952"
       id="radialGradient17958"
       cx="94.768051"
       cy="330.14624"
       fx="94.768051"
       fy="330.14624"
       r="9.1841183"
       gradientTransform="matrix(1.2602933,1.9277921,-2.6924308,1.7601754,866.63774,-442.89902)"
       gradientUnits="userSpaceOnUse" />
    <linearGradient
       id="linearGradient17952">
      <stop
         style="stop-color:#ffffff;stop-opacity:1;"
         offset="0"
         id="stop17954" />
      <stop
         style="stop-color:#b3c3c0;stop-opacity:1;"
         offset="1"
         id="stop17956" />
    </linearGradient>
    <radialGradient
       inkscape:collect="always"
       xlink:href="#linearGradient17952"
       id="radialGradient17960"
       cx="107.7846"
       cy="318.81644"
       fx="107.7846"
       fy="318.81644"
       r="9.1841183"
       gradientTransform="matrix(0.33555751,2.3708961,-1.5537238,0.26766271,557.38888,-22.875392)"
       gradientUnits="userSpaceOnUse" />
    <filter
       inkscape:collect="always"
       id="filter17999"
       x="-0.34610268"
       width="1.6922053"
       y="-0.022208724"
       height="1.0444174">
      <feGaussianBlur
         inkscape:collect="always"
         stdDeviation="1.2889018"
         id="feGaussianBlur18001" />
    </filter>
    <radialGradient
       inkscape:collect="always"
       xlink:href="#linearGradient17968"
       id="radialGradient17974"
       cx="210.89102"
       cy="699.0448"
       fx="210.89102"
       fy="699.0448"
       r="4.9023566"
       gradientTransform="matrix(2.0895657,0.12881791,-1.2286625,19.93023,629.12289,-13263.212)"
       gradientUnits="userSpaceOnUse" />
    <linearGradient
       id="linearGradient17968">
      <stop
         style="stop-color:#fafafa;stop-opacity:1;"
         offset="0"
         id="stop17970" />
      <stop
         style="stop-color:#000000;stop-opacity:1;"
         offset="1"
         id="stop17972" />
    </linearGradient>
    <filter
       inkscape:collect="always"
       id="filter17865"
       x="-0.13211146"
       width="1.2642229"
       y="-0.055598214"
       height="1.1111964">
      <feGaussianBlur
         inkscape:collect="always"
         stdDeviation="8.2007114"
         id="feGaussianBlur17867" />
    </filter>
    <filter
       inkscape:collect="always"
       id="filter17876"
       x="-0.1973689"
       width="1.3947378"
       y="-0.020122647"
       height="1.0402453">
      <feGaussianBlur
         inkscape:collect="always"
         stdDeviation="2.955888"
         id="feGaussianBlur17878" />
    </filter>
    <filter
       inkscape:collect="always"
       id="filter17944"
       x="-0.61217391"
       width="2.2243478"
       y="-0.096659042"
       height="1.1933181">
      <feGaussianBlur
         inkscape:collect="always"
         stdDeviation="1.7727044"
         id="feGaussianBlur17946" />
    </filter>
    <filter
       inkscape:collect="always"
       id="filter17912"
       x="-0.60074532"
       width="2.2014906"
       y="-0.22132723"
       height="1.4426545">
      <feGaussianBlur
         inkscape:collect="always"
         stdDeviation="4.0590903"
         id="feGaussianBlur17914" />
    </filter>
    <filter
       inkscape:collect="always"
       id="filter18027"
       x="-0.55669475"
       width="2.1133895"
       y="-0.036112994"
       height="1.072226">
      <feGaussianBlur
         inkscape:collect="always"
         stdDeviation="0.45730663"
         id="feGaussianBlur18029" />
    </filter>
    <linearGradient
       gradientUnits="userSpaceOnUse"
       id="linearGradient12536-1"
       x1="1386.9824"
       x2="1480.7324">
      <stop
         offset="0"
         stop-color="#d0d0d0"
         id="stop13107" />
      <stop
         offset="1"
         stop-color="#f2f2f2"
         id="stop13109" />
    </linearGradient>
    <linearGradient
       gradientUnits="userSpaceOnUse"
       id="linearGradient12538-9"
       x1="1459.4561"
       x2="1408.631"
       y1="692.73529"
       y2="691.85901">
      <stop
         offset="0"
         stop-color="#a00"
         id="stop13112" />
      <stop
         offset="1"
         stop-color="#f55"
         id="stop13114" />
    </linearGradient>
    <radialGradient
       cx="1179.8818"
       cy="806.77441"
       gradientUnits="userSpaceOnUse"
       id="radialGradient12540-2"
       r="39.87141">
      <stop
         offset="0"
         stop-color="#ff2a2a"
         id="stop13122" />
      <stop
         offset="1"
         stop-color="#a00"
         id="stop13124" />
    </radialGradient>
    <linearGradient
       gradientUnits="userSpaceOnUse"
       id="linearGradient12542-1"
       x1="1414.7299"
       x2="1430.5032">
      <stop
         offset="0"
         stop-color="#fff"
         id="stop13117" />
      <stop
         offset="1"
         stop-color="#fff"
         stop-opacity="0"
         id="stop13119" />
    </linearGradient>
    <radialGradient
       cx="1070.1079"
       cy="1008.3682"
       gradientTransform="matrix(1,0,0,0.2,0,806.69459)"
       gradientUnits="userSpaceOnUse"
       id="radialGradient3105"
       r="58.865231">
      <stop
         offset="0"
         id="stop13127" />
      <stop
         offset="1"
         stop-opacity="0"
         id="stop13129" />
    </radialGradient>
    <filter
       style="color-interpolation-filters:sRGB"
       inkscape:collect="always"
       id="filter4037"
       x="-0.039886054"
       width="1.0797721"
       y="-0.12103733"
       height="1.2420747">
      <feGaussianBlur
         inkscape:collect="always"
         stdDeviation="11.868751"
         id="feGaussianBlur4039" />
    </filter>
    <radialGradient
       id="c"
       cx="158.429"
       cy="578.08801"
       r="65"
       xlink:href="#a-0"
       gradientUnits="userSpaceOnUse"
       gradientTransform="matrix(0,-1.98198,1.8439,0,-1031.402,454.004)"
       fx="158.429"
       fy="578.08801" />
    <linearGradient
       id="a-0">
      <stop
         offset="0"
         stop-color="#fd5"
         id="stop12380" />
      <stop
         offset=".1"
         stop-color="#fd5"
         id="stop12382" />
      <stop
         offset=".5"
         stop-color="#ff543e"
         id="stop12384" />
      <stop
         offset="1"
         stop-color="#c837ab"
         id="stop12386" />
    </linearGradient>
    <radialGradient
       id="d"
       cx="147.694"
       cy="473.45499"
       r="65"
       xlink:href="#b-2"
       gradientUnits="userSpaceOnUse"
       gradientTransform="matrix(0.17394,0.86872,-3.5818,0.71718,1648.348,-458.493)"
       fx="147.694"
       fy="473.45499" />
    <linearGradient
       id="b-2">
      <stop
         offset="0"
         stop-color="#3771c8"
         id="stop12373" />
      <stop
         stop-color="#3771c8"
         offset=".128"
         id="stop12375" />
      <stop
         offset="1"
         stop-color="#60f"
         stop-opacity="0"
         id="stop12377" />
    </linearGradient>
    <clipPath
       id="clipPath20"
       clipPathUnits="userSpaceOnUse">
      <path
         inkscape:connector-curvature="0"
         id="path18"
         d="M 0,10.012 1366.9,10.012 1366.9,1120.912 0,1120.912 Z" />
    </clipPath>
  </defs>
  <sodipodi:namedview
     id="base"
     pagecolor="#ffffff"
     bordercolor="#666666"
     borderopacity="1.0"
     inkscape:pageopacity="0.0"
     inkscape:pageshadow="2"
     inkscape:zoom="0.49497475"
     inkscape:cx="125.16885"
     inkscape:cy="134.98297"
     inkscape:document-units="px"
     inkscape:current-layer="layer1"
     showgrid="false"
     fit-margin-top="4"
     fit-margin-left="4"
     fit-margin-right="4"
     fit-margin-bottom="4"
     inkscape:window-width="1438"
     inkscape:window-height="881"
     inkscape:window-x="1920"
     inkscape:window-y="0"
     inkscape:window-maximized="0" />
  <metadata
     id="metadata11226">
    <rdf:RDF>
      <cc:Work
         rdf:about="">
        <dc:format>image/svg+xml</dc:format>
        <dc:type
           rdf:resource="http://purl.org/dc/dcmitype/StillImage" />
        <dc:title></dc:title>
      </cc:Work>
    </rdf:RDF>
  </metadata>
  <g
     inkscape:label="Layer 1"
     inkscape:groupmode="layer"
     id="layer1"
     transform="translate(-38.398201,-346.7604)">
    <g
       id="g12377">
      <g
         transform="matrix(0.28765039,0,0,0.28765038,94.550537,548.71697)"
         id="g12225"
         style="display:inline">
        <path
           style="fill:#3c5a99"
           inkscape:connector-curvature="0"
           id="Blue_1_"
           d="M 248.082,262.307 C 255.936,262.307 262.305,255.938 262.305,248.082 L 262.305,18.812 C 262.305,10.955 255.937,4.588 248.082,4.588 L 18.812,4.588 C 10.955,4.588 4.588,10.955 4.588,18.812 L 4.588,248.082 C 4.588,255.937 10.954,262.307 18.812,262.307 L 248.082,262.307 Z" />
        <path
           style="fill:#ffffff"
           inkscape:connector-curvature="0"
           id="f"
           d="M 182.409,262.307 182.409,162.504 215.908,162.504 220.924,123.609 182.409,123.609 182.409,98.777 C 182.409,87.516 185.536,79.842 201.684,79.842 L 222.28,79.833 222.28,45.045 C 218.718,44.571 206.492,43.512 192.268,43.512 162.573,43.512 142.243,61.638 142.243,94.925 L 142.243,123.609 108.658,123.609 108.658,162.504 142.243,162.504 142.243,262.307 182.409,262.307 Z" />
      </g>
      <g
         id="g10"
         transform="matrix(0.71102605,0,0,-0.71102609,334.56543,636.26572)"
         style="display:inline">
        <g
           id="g12"
           transform="matrix(0.1,0,0,0.1,-16.877018,0)">
          <g
             id="g14">
            <g
               id="g16"
               clip-path="url(#clipPath20)">
              <path
                 style="fill:#55acee"
                 inkscape:connector-curvature="0"
                 id="path22"
                 d="M 1366.9,989.39 C 1316.63,967.081 1262.57,952.003 1205.85,945.21 1263.74,979.933 1308.19,1034.889 1329.13,1100.36 1274.95,1068.21 1214.95,1044.89 1151.04,1032.32 1099.91,1086.81 1027.02,1120.87 946.36,1120.87 791.47,1120.87 665.93,995.32 665.93,840.44 665.93,818.452 668.387,797.042 673.188,776.53 440.108,788.21 233.468,899.89 95.148,1069.54 71.007,1028.14 57.179,979.973 57.179,928.57 57.179,831.262 106.668,745.44 181.939,695.13 135.97,696.567 92.721,709.188 54.909,730.208 54.866,729.028 54.866,727.86 54.866,726.688 54.866,590.788 151.546,477.468 279.826,451.688 256.314,445.278 231.545,441.888 205.966,441.888 187.877,441.888 170.338,443.599 153.185,446.888 188.896,335.478 292.445,254.388 415.185,252.118 319.127,176.888 198.225,132.078 66.825,132.078 44.204,132.078 21.864,133.41 -0.093,135.988 124.067,56.42 271.457,10.008 429.847,10.008 945.667,10.008 1227.707,437.318 1227.707,807.938 1227.707,820.091 1227.427,832.161 1226.917,844.188 1281.687,883.759 1329.227,933.138 1366.847,989.388" />
            </g>
          </g>
        </g>
      </g>
      <g
         transform="matrix(0.64922914,0,0,0.6492291,275.82853,450.77979)"
         id="g12411"
         style="display:inline">
        <path
           style="fill:url(#c)"
           inkscape:connector-curvature="0"
           d="M 65.03,0 C 37.888,0 29.95,0.028 28.407,0.156 22.837,0.619 19.371,1.496 15.595,3.376 12.685,4.821 10.39,6.496 8.125,8.844 4,13.126 1.5,18.394 0.595,24.656 0.155,27.696 0.027,28.316 0.001,43.844 -0.009,49.02 0.001,55.832 0.001,64.969 0.001,92.089 0.031,100.019 0.161,101.559 0.611,106.979 1.461,110.389 3.261,114.119 6.701,121.259 13.271,126.619 21.011,128.619 23.691,129.309 26.651,129.689 30.451,129.869 32.061,129.939 48.471,129.989 64.891,129.989 81.311,129.989 97.731,129.969 99.301,129.889 103.701,129.682 106.256,129.339 109.081,128.609 116.871,126.599 123.321,121.319 126.831,114.079 128.596,110.439 129.491,106.899 129.896,101.762 129.984,100.642 130.021,82.785 130.021,64.952 130.021,47.116 129.981,29.292 129.893,28.172 129.483,22.952 128.588,19.442 126.766,15.732 125.271,12.695 123.611,10.427 121.201,8.108 116.9,4 111.64,1.5 105.372,0.596 102.335,0.157 101.73,0.027 86.19,0 L 65.03,0 Z"
           transform="translate(1.004,1)"
           id="path12390" />
        <path
           style="fill:url(#d)"
           inkscape:connector-curvature="0"
           d="M 65.03,0 C 37.888,0 29.95,0.028 28.407,0.156 22.837,0.619 19.371,1.496 15.595,3.376 12.685,4.821 10.39,6.496 8.125,8.844 4,13.126 1.5,18.394 0.595,24.656 0.155,27.696 0.027,28.316 0.001,43.844 -0.009,49.02 0.001,55.832 0.001,64.969 0.001,92.089 0.031,100.019 0.161,101.559 0.611,106.979 1.461,110.389 3.261,114.119 6.701,121.259 13.271,126.619 21.011,128.619 23.691,129.309 26.651,129.689 30.451,129.869 32.061,129.939 48.471,129.989 64.891,129.989 81.311,129.989 97.731,129.969 99.301,129.889 103.701,129.682 106.256,129.339 109.081,128.609 116.871,126.599 123.321,121.319 126.831,114.079 128.596,110.439 129.491,106.899 129.896,101.762 129.984,100.642 130.021,82.785 130.021,64.952 130.021,47.116 129.981,29.292 129.893,28.172 129.483,22.952 128.588,19.442 126.766,15.732 125.271,12.695 123.611,10.427 121.201,8.108 116.9,4 111.64,1.5 105.372,0.596 102.335,0.157 101.73,0.027 86.19,0 L 65.03,0 Z"
           transform="translate(1.004,1)"
           id="path12392" />
        <path
           style="fill:#ffffff"
           inkscape:connector-curvature="0"
           d="M 66.004,18 C 52.968,18 51.332,18.057 46.212,18.29 41.102,18.524 37.614,19.333 34.562,20.52 31.405,21.746 28.727,23.386 26.059,26.055 23.389,28.723 21.749,31.401 20.519,34.557 19.329,37.61 18.519,41.099 18.289,46.207 18.06,51.327 18,52.964 18,66 18,79.036 18.058,80.667 18.29,85.787 18.525,90.897 19.334,94.385 20.52,97.437 21.747,100.594 23.387,103.272 26.056,105.94 28.723,108.61 31.401,110.254 34.556,111.48 37.61,112.667 41.099,113.476 46.208,113.71 51.328,113.943 52.963,114 65.998,114 79.035,114 80.666,113.943 85.786,113.71 90.896,113.476 94.388,112.667 97.442,111.48 100.598,110.254 103.272,108.61 105.939,105.94 108.609,103.272 110.249,100.594 111.479,97.438 112.659,94.385 113.469,90.896 113.709,85.788 113.939,80.668 113.999,79.036 113.999,66 113.999,52.964 113.939,51.328 113.709,46.208 113.469,41.098 112.659,37.61 111.479,34.558 110.249,31.401 108.609,28.723 105.939,26.055 103.269,23.385 100.599,21.745 97.439,20.52 94.379,19.333 90.889,18.524 85.779,18.29 80.659,18.057 79.029,18 65.989,18 Z M 61.698,26.65 C 62.976,26.648 64.402,26.65 66.004,26.65 78.82,26.65 80.339,26.696 85.4,26.926 90.08,27.14 92.62,27.922 94.312,28.579 96.552,29.449 98.149,30.489 99.828,32.169 101.508,33.849 102.548,35.449 103.42,37.689 104.077,39.379 104.86,41.919 105.073,46.599 105.303,51.659 105.353,53.179 105.353,65.989 105.353,78.799 105.303,80.319 105.073,85.379 104.859,90.059 104.077,92.599 103.42,94.289 102.55,96.529 101.508,98.124 99.828,99.803 98.148,101.483 96.553,102.523 94.312,103.393 92.622,104.053 90.08,104.833 85.4,105.047 80.34,105.277 78.82,105.327 66.004,105.327 53.187,105.327 51.668,105.277 46.608,105.047 41.928,104.831 39.388,104.049 37.695,103.392 35.455,102.522 33.855,101.482 32.175,99.802 30.495,98.122 29.455,96.526 28.583,94.285 27.926,92.595 27.143,90.055 26.93,85.375 26.7,80.315 26.654,78.795 26.654,65.977 26.654,53.159 26.7,51.647 26.93,46.587 27.144,41.907 27.926,39.367 28.583,37.675 29.453,35.435 30.495,33.835 32.175,32.155 33.855,30.475 35.455,29.435 37.695,28.563 39.387,27.903 41.928,27.123 46.608,26.908 51.036,26.708 52.752,26.648 61.698,26.638 Z M 91.626,34.62 C 88.446,34.62 85.866,37.197 85.866,40.378 85.866,43.558 88.446,46.138 91.626,46.138 94.806,46.138 97.386,43.558 97.386,40.378 97.386,37.198 94.806,34.618 91.626,34.618 Z M 66.004,41.35 C 52.391,41.35 41.354,52.387 41.354,66 41.354,79.613 52.391,90.645 66.004,90.645 79.617,90.645 90.65,79.613 90.65,66 90.65,52.387 79.616,41.35 66.003,41.35 Z M 66.004,50 C 74.84,50 82.004,57.163 82.004,66 82.004,74.836 74.84,82 66.004,82 57.167,82 50.004,74.836 50.004,66 50.004,57.163 57.167,50 66.004,50 Z"
           id="path12394" />
      </g>
      <g
         transform="matrix(0.00198591,0,0,0.00198591,145.8623,634.02598)"
         id="g12478"
         style="display:inline">
        <path
           style="fill:#e75a4d"
           inkscape:connector-curvature="0"
           d="M 41608,250 C 43638,250 45299,1911 45299,3941 L 45299,5011 40171,8674 22713,20700 5255,8552 5255,32847 3941,32847 C 1911,32847 250,31186 250,29156 L 250,3942 C 250,1912 1911,251 3941,251 L 22713,14169 41607,251 Z"
           id="path12480" />
        <polygon
           style="fill:#e7e4d7"
           points="22713,20700 5255,8552 5255,32847 40172,32847 40172,8674 "
           id="polygon12482" />
        <polygon
           style="fill:#b8b7ae"
           points="22713,20700 22634,20644 5255,32580 5255,32847 "
           id="polygon12484" />
        <polygon
           style="fill:#b7b6ad"
           points="40172,8674 40182,32847 22713,20700 "
           id="polygon12486" />
        <path
           style="fill:#b2392f"
           inkscape:connector-curvature="0"
           d="M 45299,5011 45305,29159 C 45217,31843 44054,32801 40182,32846 L 40172,8673 45300,5010 Z"
           id="path12488" />
        <polygon
           style="fill:#f7f5ed"
           points="3941,250 22713,14168 41608,250 "
           id="polygon12490" />
      </g>
      <g
         transform="matrix(0.21746716,0,0,0.21746714,401.02196,605.77042)"
         id="g12653"
         style="display:inline">
        <g
           id="g12655">
          <rect
             style="fill:#8e8e8e"
             x="80.567001"
             y="122.222"
             width="373.673"
             height="215.244"
             id="rect12657" />
          <g
             id="g12659">
            <g
               id="g12661">
              <rect
                 style="fill:#d5d5d5"
                 x="111.892"
                 y="137.647"
                 width="53.050999"
                 height="9.8719997"
                 id="rect12663" />
              <rect
                 style="fill:#b7b7b7"
                 x="116.369"
                 y="147.52"
                 width="44.092999"
                 height="9.8640003"
                 id="rect12665" />
              <rect
                 style="fill:#b7b7b7"
                 x="111.892"
                 y="304.465"
                 width="53.050999"
                 height="9.8710003"
                 id="rect12667" />
              <rect
                 style="fill:#d5d5d5"
                 x="116.369"
                 y="294.59698"
                 width="44.092999"
                 height="9.868"
                 id="rect12669" />
              <polygon
                 style="fill:#d5d5d5"
                 points="157.794,294.597 119.04,294.597 123.353,157.384 153.481,157.384 "
                 id="polygon12671" />
            </g>
            <g
               id="g12673">
              <rect
                 style="fill:#d5d5d5"
                 x="369.86401"
                 y="137.647"
                 width="53.050999"
                 height="9.8719997"
                 id="rect12675" />
              <rect
                 style="fill:#b7b7b7"
                 x="374.345"
                 y="147.52"
                 width="44.089001"
                 height="9.8640003"
                 id="rect12677" />
              <rect
                 style="fill:#b7b7b7"
                 x="369.86401"
                 y="304.465"
                 width="53.050999"
                 height="9.8710003"
                 id="rect12679" />
              <rect
                 style="fill:#d5d5d5"
                 x="374.345"
                 y="294.59698"
                 width="44.089001"
                 height="9.868"
                 id="rect12681" />
              <polygon
                 style="fill:#d5d5d5"
                 points="415.767,294.597 377.012,294.597 381.33,157.384 411.454,157.384 "
                 id="polygon12683" />
            </g>
          </g>
          <g
             id="g12685">
            <g
               id="g12687">
              <rect
                 style="fill:#d5d5d5"
                 x="432.056"
                 y="137.478"
                 width="48.57"
                 height="9.0380001"
                 id="rect12689" />
              <rect
                 style="fill:#b7b7b7"
                 x="436.15799"
                 y="146.51601"
                 width="40.365002"
                 height="9.0310001"
                 id="rect12691" />
              <rect
                 style="fill:#b7b7b7"
                 x="432.056"
                 y="336.14001"
                 width="48.57"
                 height="9.0369997"
                 id="rect12693" />
              <polygon
                 style="fill:#d5d5d5"
                 points="475.082,336.14 437.599,336.14 442.553,155.547 470.132,155.547 "
                 id="polygon12695" />
            </g>
            <g
               id="g12697">
              <rect
                 style="fill:#d5d5d5"
                 x="54.182999"
                 y="137.478"
                 width="48.57"
                 height="9.0380001"
                 id="rect12699" />
              <rect
                 style="fill:#b7b7b7"
                 x="58.285"
                 y="146.51601"
                 width="40.365002"
                 height="9.0310001"
                 id="rect12701" />
              <rect
                 style="fill:#b7b7b7"
                 x="54.182999"
                 y="336.14001"
                 width="48.57"
                 height="9.0369997"
                 id="rect12703" />
              <polygon
                 style="fill:#d5d5d5"
                 points="97.209,336.14 59.726,336.14 64.68,155.547 92.259,155.547 "
                 id="polygon12705" />
            </g>
          </g>
          <polygon
             style="fill:#8e8e8e"
             points="267.125,0 534.807,106.804 0,106.804 "
             id="polygon12707" />
          <rect
             style="fill:#8e8e8e"
             x="32.903"
             y="345.177"
             width="469"
             height="18.104"
             id="rect12709" />
          <rect
             style="fill:#b7b7b7"
             x="80.569"
             y="329.755"
             width="373.66901"
             height="15.422"
             id="rect12711" />
          <rect
             style="fill:#d5d5d5"
             x="105.969"
             y="314.336"
             width="322.86801"
             height="15.419"
             id="rect12713" />
          <rect
             style="fill:#d5d5d5"
             x="44.633999"
             y="122.222"
             width="445.539"
             height="15.426"
             id="rect12715" />
          <rect
             style="fill:#b7b7b7"
             x="0"
             y="106.804"
             width="534.80701"
             height="15.418"
             id="rect12717" />
          <polygon
             style="fill:#d5d5d5"
             points="267.127,14.459 508.914,107.805 25.893,107.805 "
             id="polygon12719" />
          <g
             id="g12721">
            <g
               id="g12723">
              <rect
                 style="fill:#d5d5d5"
                 x="173.492"
                 y="137.647"
                 width="53.054001"
                 height="9.8719997"
                 id="rect12725" />
              <rect
                 style="fill:#b7b7b7"
                 x="177.97301"
                 y="147.52"
                 width="44.089001"
                 height="9.8640003"
                 id="rect12727" />
              <rect
                 style="fill:#b7b7b7"
                 x="173.492"
                 y="304.465"
                 width="53.054001"
                 height="9.8710003"
                 id="rect12729" />
              <rect
                 style="fill:#d5d5d5"
                 x="177.97301"
                 y="294.59698"
                 width="44.089001"
                 height="9.868"
                 id="rect12731" />
              <polygon
                 style="fill:#d5d5d5"
                 points="219.395,294.597 180.644,294.597 184.958,157.384 215.081,157.384 "
                 id="polygon12733" />
            </g>
            <g
               id="g12735">
              <rect
                 style="fill:#d5d5d5"
                 x="308.26801"
                 y="137.647"
                 width="53.047001"
                 height="9.8719997"
                 id="rect12737" />
              <rect
                 style="fill:#b7b7b7"
                 x="312.74899"
                 y="147.52"
                 width="44.092999"
                 height="9.8640003"
                 id="rect12739" />
              <rect
                 style="fill:#b7b7b7"
                 x="308.26801"
                 y="304.465"
                 width="53.047001"
                 height="9.8710003"
                 id="rect12741" />
              <rect
                 style="fill:#d5d5d5"
                 x="312.74899"
                 y="294.59698"
                 width="44.092999"
                 height="9.868"
                 id="rect12743" />
              <polygon
                 style="fill:#d5d5d5"
                 points="354.167,294.597 315.412,294.597 319.733,157.384 349.854,157.384 "
                 id="polygon12745" />
            </g>
          </g>
          <path
             style="fill:#909090"
             inkscape:connector-curvature="0"
             d="M 291.201,64.008 C 291.201,77.15 280.548,87.803 267.406,87.803 254.264,87.803 243.607,77.15 243.607,64.008 243.607,50.869 254.264,40.212 267.406,40.212 280.548,40.212 291.201,50.869 291.201,64.008 Z"
             id="path12747" />
          <path
             style="fill:#e8e8e8"
             inkscape:connector-curvature="0"
             d="M 291.201,64.008 C 291.201,77.15 280.548,87.803 267.406,87.803 254.264,87.803 243.607,77.15 243.607,64.008 243.607,50.869 254.264,40.212 267.406,40.212 280.548,40.212 291.201,50.869 291.201,64.008 Z"
             id="path12749" />
          <path
             style="fill:#8e8e8e"
             inkscape:connector-curvature="0"
             d="M 243.606,64.008 C 243.606,77.15 254.263,87.803 267.405,87.803 280.547,87.803 291.2,77.15 291.2,64.008 291.2,50.869 280.547,40.212 267.405,40.212 254.263,40.212 243.606,50.869 243.606,64.008 Z"
             id="path12751" />
        </g>
        <polygon
           style="opacity:0.1"
           points="64.68,155.547 59.726,336.14 54.183,336.14 54.183,345.177 32.903,345.177 32.903,363.281 92.246,363.281 401.795,53.732 267.125,0 0,106.804 0,122.222 44.634,122.222 44.634,137.647 54.183,137.647 54.183,146.516 58.285,146.516 58.285,155.547 "
           id="polygon12753" />
      </g>
      <g
         inkscape:label="Layer 1"
         id="layer1-7"
         transform="matrix(0.12186081,0,0,0.1218608,234.78778,601.90471)"
         style="display:inline">
        <path
           style="fill:#000000;fill-opacity:1;stroke:none;filter:url(#filter4037)"
           d="M 169.86033,507.86716 C 149.07531,584.99836 118.06175,652.36229 97.205989,729.47259 99.307529,734.14679 106.07268,730.52279 109.92474,731.66009 343.17885,731.57709 576.48341,731.82679 809.70599,731.53509 814.00279,728.94959 808.58481,722.88009 808.69827,719.04409 788.45957,644.89579 760.24712,576.50826 740,502.36216 543.97917,502.36216 366.28741,506.39836 170.26658,506.39836 L 170,507.36216 Z"
           id="path3969"
           inkscape:connector-curvature="0"
           sodipodi:nodetypes="ccccccccc" />
        <path
           style="fill:#dcd3ba;fill-opacity:1;stroke:none"
           d="M 746.44706,498.58479 809.38006,729.22089 C 809.44436,729.45669 809.1435,729.66199 808.84965,729.66199 L 99.910479,729.66199 C 99.616629,729.66199 99.318269,729.45739 99.380069,729.22089 L 161.44707,498.58479 Z"
           id="rect3020"
           inkscape:connector-curvature="0"
           sodipodi:nodetypes="csssscc" />
        <path
           style="opacity:0.48559672;fill:#89d375;fill-opacity:1;stroke:none"
           d="M 726.72747,727.44669 C 726.72747,726.33309 723.40573,723.23159 721.66042,722.71559 719.34161,722.03009 712.44176,717.89549 712.44176,717.19149 712.44176,716.88169 712.03997,716.61439 711.5489,716.59769 708.89257,716.50669 701.31283,707.31979 699.62702,702.14729 698.97729,700.15379 698.02811,699.08459 695.98079,698.04019 694.45848,697.26359 692.71193,696.62809 692.09957,696.62809 691.48721,696.62809 689.30476,695.73759 687.24968,694.64909 685.19461,693.56059 681.58461,692.08129 679.22747,691.36169 672.51266,689.31189 669.20501,687.45589 664.52598,683.11249 661.18223,680.00859 659.87518,678.18549 658.83666,675.17689 658.09511,673.02859 657.4779,670.75669 657.46508,670.12819 657.45218,669.49959 656.51759,667.70959 655.38806,666.15029 654.25853,664.59099 653.11187,662.61419 652.83993,661.75739 652.56798,660.90059 652.04572,660.19959 651.67933,660.19959 651.31296,660.19959 651.01318,659.56859 651.01318,658.79749 651.01318,656.89359 644.25746,650.45449 640.2989,648.58539 638.53104,647.75069 636.82757,646.64739 636.51341,646.13359 636.19924,645.61989 634.75281,645.19929 633.29912,645.19909 628.66611,645.19819 612.44176,640.29059 612.44176,638.89009 612.44176,638.57319 611.48257,637.23959 610.31023,635.92649 609.13789,634.61339 607.97163,632.88669 607.71855,632.08929 607.46546,631.29189 606.01393,628.60619 604.49293,626.12119 601.81125,621.73989 601.72714,621.40319 601.71671,615.00839 601.70671,608.92029 600.98608,605.23909 599.21336,602.22229 598.82826,601.56689 595.94176,599.78379 592.7989,598.25979 589.65604,596.73589 586.17599,594.88859 585.06546,594.15479 583.37723,593.03919 580.97733,592.73559 570.4226,592.30249 557.06442,591.75429 550.77818,590.45019 546.59869,587.36019 545.52276,586.56469 544.37258,585.91389 544.04274,585.91389 543.7129,585.91389 543.03622,584.78889 542.53901,583.41389 542.04181,582.03889 541.17366,580.91389 540.60981,580.91389 540.04595,580.91389 539.58461,580.59919 539.58461,580.21459 539.58461,579.29499 531.78193,571.62809 530.84599,571.62809 530.22722,571.62809 522.37512,567.87209 517.7989,565.38719 517.01318,564.96049 514.44176,564.23969 512.08461,563.78539 507.31249,562.86569 501.76625,560.41749 501.21793,558.98859 501.02126,558.47599 500.49295,558.05669 500.04391,558.05669 498.64255,558.05669 495.54791,553.54059 495.02018,550.72549 494.74301,549.24699 494.49185,542.84719 494.46206,536.50389 494.40866,525.13749 494.37886,524.92479 492.40482,521.81199 491.30313,520.07479 489.01254,517.24359 487.31461,515.52039 485.61668,513.79719 482.6991,510.80959 480.83109,508.88119 478.96309,506.95279 475.99617,504.04899 474.23795,502.42829 L 471.44706,498.58479 746.44706,498.58479 777.54036,613.77099 C 794.42062,676.30449 807.37979,727.77989 807.40178,727.87809 807.42378,727.97609 789.28104,728.05669 767.08461,728.05669 744.88818,728.05669 726.72747,727.78219 726.72747,727.44669 Z"
           id="path3795"
           inkscape:connector-curvature="0"
           sodipodi:nodetypes="scscscsscsscscsscccsscsccccscssssscscsssssscccscss" />
        <path
           style="fill:#f7fd9f;fill-opacity:1;stroke:none"
           d="M 589.44706,498.58479 634.44706,498.58479 644.38007,729.66199 579.38007,729.66199 Z"
           id="rect3804"
           inkscape:connector-curvature="0"
           sodipodi:nodetypes="ccccc" />
        <g
           id="g3846"
           style="fill:#ffffff;fill-opacity:1"
           transform="translate(105.01849,-618.77743)">
          <path
             sodipodi:nodetypes="ccccc"
             inkscape:connector-curvature="0"
             id="rect3797"
             d="M 676.42857,1242.3622 686.42857,1282.3622 96.428576,1282.3622 106.42858,1247.3622 Z"
             style="fill:#ffffff;fill-opacity:1;stroke:none" />
          <path
             sodipodi:nodetypes="ccccc"
             inkscape:connector-curvature="0"
             id="rect3799"
             d="M 116.42857,1117.3622 156.42857,1117.3622 120.36157,1282.4394 70.361577,1282.4394 Z"
             style="fill:#ffffff;fill-opacity:1;stroke:none" />
        </g>
        <path
           sodipodi:nodetypes="csssscc"
           inkscape:connector-curvature="0"
           id="path3861"
           d="M 746.44706,498.58479 809.38006,729.22089 C 809.44436,729.45669 809.1435,729.66199 808.84965,729.66199 L 99.910479,729.66199 C 99.616629,729.66199 99.318269,729.45739 99.380069,729.22089 L 161.44707,498.58479 Z"
           style="fill:none;stroke:none" />
        <path
           sodipodi:nodetypes="csssscc"
           inkscape:connector-curvature="0"
           id="path4041"
           d="M 746.44706,498.58479 809.38006,729.22089 C 809.44436,729.45669 809.1435,729.66199 808.84965,729.66199 L 99.910479,729.66199 C 99.616629,729.66199 99.318269,729.45739 99.380069,729.22089 L 161.44707,498.58479 Z"
           style="opacity:0.8;fill:none;stroke:#000000;stroke-width:10;stroke-miterlimit:4;stroke-dasharray:none;stroke-opacity:1" />
        <path
           style="fill:#e52626;fill-opacity:1;stroke:#000000;stroke-width:10.3970871;stroke-miterlimit:4;stroke-opacity:1"
           d="M 452.08461,63.785377 C 352.60055,63.785377 272.27211,144.19528 272.27211,243.37909 272.27211,274.56539 280.24088,303.90679 294.20961,329.47289 L 452.08461,593.78539 609.95961,329.47289 C 623.92836,303.90679 631.89711,274.56539 631.89711,243.37909 631.89711,144.19528 551.56867,63.785377 452.08461,63.785377 Z M 450.08461,168.16037 C 450.75201,168.14347 451.41313,168.16037 452.08461,168.16037 495.05929,168.16037 529.89711,202.99819 529.89711,245.97289 529.89711,288.94759 495.05929,323.78539 452.08461,323.78539 409.10993,323.78539 374.27211,288.94759 374.27211,245.97289 374.27211,203.66969 408.03812,169.22563 450.08461,168.16037 Z"
           id="path4043"
           inkscape:connector-curvature="0" />
      </g>
      <g
         transform="matrix(0.39215284,0,0,0.39215283,-162.70128,180.42941)"
         id="g13131"
         style="display:inline">
        <path
           style="opacity:0.98500001;fill:url(#linearGradient12536-1)"
           inkscape:connector-curvature="0"
           d="M 1430.5137,538.22948 C 1418.5263,538.22948 1408.8887,547.89843 1408.8887,559.88573 L 1408.8887,787.38573 C 1408.8887,787.43773 1408.8883,787.49008 1408.8887,787.54198 1395.7208,795.84248 1386.9824,810.51378 1386.9824,827.22948 1386.9824,853.12157 1407.9653,874.10448 1433.8574,874.10448 1459.7495,874.10448 1480.7324,853.12157 1480.7324,827.22948 1480.7324,810.14789 1471.6028,795.20574 1457.9511,787.01073 L 1457.9511,559.88573 C 1457.9511,547.89843 1448.3135,538.22948 1436.3261,538.22948 L 1430.5137,538.22948 Z"
           id="path13133" />
        <g
           transform="translate(0,10)"
           id="g13135">
          <path
             style="opacity:0.98500001;fill:url(#linearGradient12538-9)"
             inkscape:connector-curvature="0"
             d="M 1409.5,625.65625 1409.5,778.625 C 1409.5,790.6123 1419.1689,800.28125 1431.1562,800.28125 L 1436.9375,800.28125 C 1448.9248,800.28125 1458.5938,790.6123 1458.5938,778.625 L 1458.5938,625.90625 C 1451.725,627.24348 1443.4906,628.03125 1434.625,628.03125 1425.2497,628.03125 1416.5938,627.13747 1409.5,625.65625 Z"
             id="path13137" />
          <path
             style="opacity:0.98500001;fill:url(#radialGradient12540-2)"
             inkscape:connector-curvature="0"
             d="M 1229.4416,817.95331 C 1229.4416,839.97368 1211.5906,857.82472 1189.5702,857.82472 1167.5498,857.82472 1149.6988,839.97368 1149.6988,817.95331 1149.6988,795.93294 1167.5498,778.08189 1189.5702,778.08189 1211.5906,778.08189 1229.4416,795.93293 1229.4416,817.95331 Z"
             transform="matrix(1.175824,0,0,1.175824,35.75631,-143.2857)"
             id="path13139" />
        </g>
        <path
           style="opacity:0.98500001;fill:#333333"
           inkscape:connector-curvature="0"
           d="M 1430.2188,538.46875 C 1417.6936,538.46875 1407.5938,548.60171 1407.5938,561.125 L 1407.5938,788.28125 C 1394.4198,796.81191 1385.6875,811.61354 1385.6875,828.46875 1385.6875,854.90111 1407.1301,876.34375 1433.5625,876.34375 1459.9949,876.34375 1481.4375,854.90111 1481.4375,828.46875 1481.4375,811.2479 1472.3113,796.18452 1458.6562,787.75 L 1458.6562,561.125 C 1458.6562,548.60171 1448.5564,538.46875 1436.0312,538.46875 L 1430.2188,538.46875 Z M 1430.2188,540.46875 1436.0312,540.46875 C 1447.4809,540.46875 1456.6563,549.67369 1456.6562,561.125 L 1456.6562,788.25 1456.6562,788.8125 1457.1562,789.09375 C 1470.5167,797.11395 1479.4375,811.74347 1479.4375,828.46875 1479.4375,853.82057 1458.9143,874.34375 1433.5625,874.34375 1408.2107,874.34375 1387.6875,853.82057 1387.6875,828.46875 1387.6875,812.10156 1396.2379,797.74847 1409.125,789.625 L 1409.5938,789.34375 1409.5938,788.78125 C 1409.5934,788.73965 1409.5938,788.68215 1409.5938,788.625 L 1409.5938,561.125 C 1409.5938,549.67369 1418.7691,540.46875 1430.2188,540.46875 Z"
           id="path13141" />
        <path
           style="opacity:0.98500001;fill:url(#linearGradient12542-1)"
           inkscape:connector-curvature="0"
           d="M 1420.685,585.63672 A 8.05524,8.05524 0 0 1 1428.7403,593.69196 L 1428.7403,772.14656 A 8.05524,8.05524 0 0 1 1420.685,780.2018 8.05524,8.05524 0 0 1 1412.6298,772.14656 L 1412.6298,593.69196 A 8.05524,8.05524 0 0 1 1420.685,585.63672"
           id="path13143" />
        <path
           style="opacity:0.5;fill:url(#radialGradient3105)"
           inkscape:connector-curvature="0"
           d="M 1128.9731,1008.3682 C 1128.9731,1014.8703 1102.6183,1020.1413 1070.1079,1020.1413 1037.5975,1020.1413 1011.2427,1014.8703 1011.2427,1008.3682 1011.2427,1001.8661 1037.5975,996.59518 1070.1079,996.59518 1102.6183,996.59518 1128.9731,1001.8662 1128.9731,1008.3682 Z"
           transform="translate(364.209,-116.77339)"
           id="path13145" />
      </g>
      <g
         inkscape:label="Layer 1"
         id="layer1-9"
         transform="matrix(0.27222571,0,0,0.2722257,393.14002,304.0869)"
         style="display:inline">
        <rect
           ry="8.6872587"
           rx="1.2342677"
           y="985.81396"
           x="192.14149"
           height="8.6872587"
           width="220.92984"
           id="rect17298"
           style="color:#000000;display:inline;overflow:visible;visibility:visible;fill:#000000;fill-opacity:1;fill-rule:nonzero;stroke:#ffffff;stroke-width:0.40135521;stroke-linecap:round;stroke-linejoin:miter;stroke-miterlimit:4;stroke-dasharray:none;stroke-dashoffset:0;stroke-opacity:1;marker:none;enable-background:accumulate" />
        <rect
           style="color:#000000;display:inline;overflow:visible;visibility:visible;fill:#d3d3d3;fill-opacity:1;fill-rule:nonzero;stroke:none;stroke-width:0.41456693;marker:none;enable-background:accumulate"
           id="rect17294"
           width="235.71428"
           height="8.6872587"
           x="181.85327"
           y="991.81396"
           rx="1.2342677"
           ry="8.6872587" />
        <rect
           ry="7.4486351"
           rx="0"
           y="989.81396"
           x="210.07999"
           height="8.6872587"
           width="180.00211"
           id="rect17296"
           style="color:#000000;display:inline;overflow:visible;visibility:visible;fill:#000000;fill-opacity:1;fill-rule:nonzero;stroke:#ffffff;stroke-width:0.36227679;stroke-linecap:round;stroke-linejoin:miter;stroke-miterlimit:4;stroke-dasharray:none;stroke-dashoffset:0;stroke-opacity:1;marker:none;filter:url(#filter17812);enable-background:accumulate"
           transform="matrix(1,0,0,1.1662887,0,-164.59483)" />
        <path
           style="color:#000000;display:inline;overflow:visible;visibility:visible;fill:#d3d3d3;fill-opacity:1;fill-rule:nonzero;stroke:none;stroke-width:0.41456693;marker:none;enable-background:accumulate"
           d="M 189.33075,537.0993 C 264.7355,504.2812 338.44347,502.85337 410.22314,537.0993 419.23811,541.40032 428.25278,547.56593 428.25278,560.56707 L 428.25278,901.76072 C 427.44603,904.56065 426.90505,907.39381 428.25278,910.46305 L 428.25278,966.35591 C 428.25278,979.35705 420.21156,989.82367 410.22314,989.82367 L 189.33075,989.82367 C 179.34233,989.82367 171.30112,979.35705 171.30112,966.35591 L 171.30112,910.46305 C 172.712,907.35751 171.66789,904.25198 171.30112,901.14644 L 171.30112,560.56707 C 171.30112,547.56593 180.17215,541.08536 189.33075,537.0993 Z"
           id="rect17281"
           inkscape:connector-curvature="0"
           sodipodi:nodetypes="sssccssssccss" />
        <path
           sodipodi:nodetypes="sssccsssscss"
           inkscape:connector-curvature="0"
           id="path17818"
           d="M 189.32675,905.7924 C 256.87263,905.99624 330.84088,905.58043 410.205,905.7924 419.24602,905.8165 428.23349,899.37269 428.23349,901.46995 L 427.07519,906.70581 428.23349,911.04944 428.23349,966.9289 C 428.23349,969.02616 420.19278,970.71456 410.205,970.71456 L 189.32675,970.71456 C 179.33897,970.71456 171.29827,969.02616 171.29827,966.9289 L 171.29827,910.87257 C 172.60859,907.59277 172.44274,904.47699 171.29827,901.46995 170.55226,899.50985 180.14624,905.76469 189.32675,905.7924 Z"
           style="color:#000000;display:inline;overflow:visible;visibility:visible;fill:#000000;fill-opacity:1;fill-rule:nonzero;stroke:#000000;stroke-width:0.43101272;marker:none;enable-background:accumulate" />
        <path
           sodipodi:nodetypes="sssssssss"
           inkscape:connector-curvature="0"
           id="path17816"
           d="M 189.33075,965.06064 C 264.7355,963.26557 338.44347,963.18747 410.22314,965.06064 419.23811,965.2959 428.25278,965.63314 428.25278,966.34428 L 428.25278,988.54004 C 428.25278,989.25117 420.21156,989.82367 410.22314,989.82367 L 189.33075,989.82367 C 179.34233,989.82367 171.30112,989.25117 171.30112,988.54004 L 171.30112,966.34428 C 171.30112,965.63314 180.17215,965.27867 189.33075,965.06064 Z"
           style="color:#000000;display:inline;overflow:visible;visibility:visible;fill:#d3d3d3;fill-opacity:1;fill-rule:nonzero;stroke:#000000;stroke-width:0.41456693;marker:none;enable-background:accumulate" />
        <path
           sodipodi:nodetypes="sssssssss"
           inkscape:connector-curvature="0"
           id="path17820"
           d="M 189.26625,908.8221 C 264.75598,904.83947 338.54702,904.66624 410.40758,908.8221 419.43271,909.34409 428.45754,910.09224 428.45754,911.67003 L 428.45754,960.91396 C 428.45754,962.49175 420.40726,963.76189 410.40758,963.76189 L 189.26625,963.76189 C 179.26658,963.76189 171.2163,962.49175 171.2163,960.91396 L 171.2163,911.67003 C 171.2163,910.09224 180.09733,909.30583 189.26625,908.8221 Z"
           style="color:#000000;display:inline;overflow:visible;visibility:visible;fill:#d3d3d3;fill-opacity:1;fill-rule:nonzero;stroke:none;stroke-width:0.41456693;marker:none;enable-background:accumulate" />
        <ellipse
           ry="15.637066"
           rx="8.9768343"
           cy="327.22006"
           cx="103.95753"
           style="color:#000000;display:inline;overflow:visible;visibility:visible;fill:url(#radialGradient17958);fill-opacity:1;fill-rule:nonzero;stroke:#000000;stroke-width:0.41456693;stroke-linecap:round;stroke-linejoin:miter;stroke-miterlimit:4;stroke-dasharray:none;stroke-dashoffset:0;stroke-opacity:1;marker:none;enable-background:accumulate"
           id="path17844"
           transform="translate(109.28983,429.57055)" />
        <ellipse
           ry="15.637066"
           rx="8.9768343"
           cy="327.22006"
           cx="103.95753"
           transform="matrix(0.78013422,0,0,0.70711409,132.02658,406.30843)"
           id="path17854"
           style="color:#000000;display:inline;overflow:visible;visibility:visible;fill:url(#radialGradient17960);fill-opacity:1;fill-rule:nonzero;stroke:#000000;stroke-width:0.41456693;stroke-linecap:round;stroke-linejoin:miter;stroke-miterlimit:4;stroke-dasharray:none;stroke-dashoffset:0;stroke-opacity:1;marker:none;enable-background:accumulate" />
        <path
           sodipodi:nodetypes="aaaccassaccaa"
           inkscape:connector-curvature="0"
           id="path17979"
           d="M 212.73863,633.34448 C 213.67044,632.0965 214.82674,630.03881 216.3472,630.37634 218.09635,630.76463 218.26792,633.47927 218.6638,635.22672 219.55971,639.18131 218.6638,647.39114 218.6638,647.39114 217.45005,679.41334 217.15419,711.43554 218.6638,743.45774 219.84496,751.47366 220.2681,758.67831 218.6638,766.02905 218.39211,767.27391 218.29349,769.14429 217.07114,769.50395 215.2846,770.02961 214.36802,768.79253 212.37666,766.89777 212.22832,766.75663 212.01668,766.34414 211.9423,766.02905 210.21924,758.73003 210.56649,751.1107 211.9423,743.53013 213.80966,712.56227 213.33648,680.42414 211.9423,647.8255 211.9423,647.8255 211.10748,639.3425 211.9423,635.22672 212.07772,634.55906 212.33105,633.89036 212.73863,633.34448 Z"
           style="color:#000000;display:inline;overflow:visible;visibility:visible;fill:#000000;fill-opacity:1;fill-rule:nonzero;stroke:none;stroke-width:0.86700517;marker:none;filter:url(#filter17999);enable-background:accumulate" />
        <path
           style="color:#000000;display:inline;overflow:visible;visibility:visible;fill:url(#radialGradient17974);fill-opacity:1;fill-rule:nonzero;stroke:none;stroke-width:0.86700517;stroke-linecap:round;stroke-linejoin:miter;stroke-miterlimit:4;stroke-dashoffset:0;stroke-opacity:1;marker:none;enable-background:accumulate"
           d="M 210.7116,632.62054 C 211.64341,631.37256 212.79971,629.31487 214.32017,629.6524 216.06932,630.04069 216.24089,632.75533 216.63677,634.50278 217.53268,638.45737 216.63677,646.6672 216.63677,646.6672 215.42302,678.6894 215.12716,710.7116 216.63677,742.7338 217.81793,750.74972 218.24107,757.95437 216.63677,765.30511 216.36508,766.54997 216.26646,768.42035 215.04411,768.78001 213.25757,769.30567 212.34099,768.06859 210.34963,766.17383 210.20129,766.03269 209.98965,765.6202 209.91527,765.30511 208.19221,758.00609 208.53946,750.38676 209.91527,742.80619 211.78263,711.83833 211.30945,679.7002 209.91527,647.10156 209.91527,647.10156 209.08045,638.61856 209.91527,634.50278 210.05069,633.83512 210.30402,633.16642 210.7116,632.62054 Z"
           id="rect17856"
           inkscape:connector-curvature="0"
           sodipodi:nodetypes="aaaccassaccaa" />
        <path
           sodipodi:nodetypes="sssscssss"
           inkscape:connector-curvature="0"
           id="path17859"
           d="M 268.72761,540.60144 C 318.29891,516.23436 369.21188,536.46932 416.40004,561.89655 422.32651,565.09002 418.96397,570.82624 418.98637,580.47942 L 419.66489,872.84611 C 419.68729,882.49929 414.76195,897.22048 414.76195,897.22048 L 399.75617,889.93141 C 393.8497,887.06234 377.68573,874.04973 377.47873,864.39874 L 371.68722,594.37904 C 371.48022,584.72804 262.70672,543.56105 268.72761,540.60144 Z"
           style="color:#000000;display:inline;overflow:visible;visibility:visible;opacity:0.82743363;fill:#ffffff;fill-opacity:1;fill-rule:nonzero;stroke:none;stroke-width:0.41456693;marker:none;filter:url(#filter17865);enable-background:accumulate" />
        <path
           style="color:#000000;display:inline;overflow:visible;visibility:visible;opacity:1;fill:#ffffff;fill-opacity:1;fill-rule:nonzero;stroke:none;stroke-width:0.41456693;stroke-linecap:round;stroke-linejoin:miter;stroke-miterlimit:4;stroke-dashoffset:0;stroke-opacity:1;marker:none;filter:url(#filter17876);enable-background:accumulate"
           d="M 193.67016,546.24384 C 205.014,541.23529 214.42948,538.17807 220.1134,546.73534 207.47464,544.67941 189.24676,558.76282 192.26595,560.73186 L 192.67547,893.44532 C 192.67577,893.68596 196.29897,893.98849 192.2411,893.87969 L 184.60425,893.67493 C 184.36371,893.66893 184.16989,893.4812 184.16989,893.24056 L 184.16989,558.20194 C 184.16989,553.73731 189.58591,548.04712 193.67016,546.24384 Z"
           id="rect17869"
           inkscape:connector-curvature="0"
           sodipodi:nodetypes="sccssssss" />
        <rect
           style="color:#000000;display:inline;overflow:visible;visibility:visible;fill:#ffffff;fill-opacity:1;fill-rule:nonzero;stroke:none;stroke-width:0.41456693;marker:none;filter:url(#filter17944);enable-background:accumulate"
           id="rect17880"
           width="6.9498072"
           height="44.015446"
           x="184.16988"
           y="913.94519"
           rx="0.43436298"
           ry="0.43436295" />
        <rect
           ry="0.43436295"
           rx="0.43436301"
           y="915.68262"
           x="394.98068"
           height="44.015446"
           width="16.216217"
           id="rect17882"
           style="color:#000000;display:inline;overflow:visible;visibility:visible;fill:#ffffff;fill-opacity:1;fill-rule:nonzero;stroke:none;stroke-width:0.41456693;marker:none;filter:url(#filter17912);enable-background:accumulate" />
        <rect
           ry="1.204977"
           rx="0.43436298"
           y="915.68262"
           x="304.63321"
           height="44.015446"
           width="6.9498072"
           id="rect17948"
           style="color:#000000;display:inline;overflow:visible;visibility:visible;fill:#ffffff;fill-opacity:1;fill-rule:nonzero;stroke:none;stroke-width:0.41456693;marker:none;filter:url(#filter17944);enable-background:accumulate"
           transform="matrix(1,0,0,0.36047405,-127.41313,639.05954)" />
        <rect
           transform="matrix(1.8991399,0,0,0.36047405,-176.83927,639.63869)"
           style="color:#000000;display:inline;overflow:visible;visibility:visible;fill:#ffffff;fill-opacity:1;fill-rule:nonzero;stroke:none;stroke-width:0.41456693;marker:none;filter:url(#filter17944);enable-background:accumulate"
           id="rect17950"
           width="6.9498072"
           height="44.015446"
           x="304.63321"
           y="915.68262"
           rx="0.22871563"
           ry="1.204977" />
        <path
           transform="matrix(0.99852354,0.05432072,-0.05432072,0.99852354,109.00946,445.22517)"
           style="color:#000000;display:inline;overflow:visible;visibility:visible;fill:#ffffff;fill-opacity:1;fill-rule:nonzero;stroke:none;stroke-width:0.41456693;marker:none;filter:url(#filter18027);enable-background:accumulate"
           d="M 114.33688,186.54318 C 114.33688,189.48342 115.59877,211.84701 114.92026,211.84701 114.24174,211.84701 112.61835,189.73324 112.61835,186.793 112.61835,183.85276 113.1684,181.46922 113.84692,181.46922 114.52543,181.46922 114.33688,183.60294 114.33688,186.54318 Z"
           id="path17976"
           inkscape:connector-curvature="0"
           sodipodi:nodetypes="sssss" />
        <path
           sodipodi:nodetypes="sssss"
           inkscape:connector-curvature="0"
           id="path18031"
           d="M 114.33688,186.54318 C 114.33688,189.48342 115.177,211.21895 114.92026,211.84701 114.33188,213.28637 128.28896,439.95972 112.61835,186.793 112.4367,183.85838 113.1684,181.46922 113.84692,181.46922 114.52543,181.46922 114.33688,183.60294 114.33688,186.54318 Z"
           style="color:#000000;display:inline;overflow:visible;visibility:visible;fill:#ffffff;fill-opacity:1;fill-rule:nonzero;stroke:none;stroke-width:0.41456693;marker:none;filter:url(#filter18027);enable-background:accumulate"
           transform="matrix(0.99852354,-0.05432072,-0.05432072,-0.99852354,108.86467,953.04082)" />
        <text
           xml:space="preserve"
           style="font-style:normal;font-variant:normal;font-weight:300;font-stretch:normal;font-size:10px;line-height:125%;font-family:'Rosewood Std Regular';-inkscape-font-specification:'Rosewood Std Regular';text-align:center;letter-spacing:0px;word-spacing:0px;text-anchor:middle;fill:#000000;fill-opacity:1;stroke:none"
           x="143.33977"
           y="1290.6826"
           id="text18033"
           sodipodi:linespacing="125%"><tspan
             sodipodi:role="line"
             id="tspan18035"
             x="143.33977"
             y="1290.6826" /></text>
        <flowRoot
           xml:space="preserve"
           id="flowRoot18075"
           style="font-style:normal;font-variant:normal;font-weight:300;font-stretch:normal;font-size:10px;line-height:125%;font-family:'Rosewood Std Regular';-inkscape-font-specification:'Rosewood Std Regular';text-align:center;letter-spacing:0px;word-spacing:0px;text-anchor:middle;fill:#ff0000;fill-opacity:1;stroke:#ff0000;stroke-width:1px;stroke-linecap:butt;stroke-linejoin:miter;stroke-opacity:1"><flowRegion
             id="flowRegion18077"><rect
               id="rect18079"
               width="26.061775"
               height="10.714286"
               x="94.111969"
               y="854.53668"
               style="fill:#ff0000;stroke:#ff0000" /></flowRegion><flowPara
             id="flowPara18081" /></flowRoot>        <flowRoot
           xml:space="preserve"
           id="flowRoot18083"
           style="font-style:normal;font-variant:normal;font-weight:300;font-stretch:normal;font-size:10px;line-height:125%;font-family:'Rosewood Std Regular';-inkscape-font-specification:'Rosewood Std Regular';text-align:center;letter-spacing:0px;word-spacing:0px;text-anchor:middle;fill:#000000;fill-opacity:1;stroke:none;stroke-width:1px;stroke-linecap:butt;stroke-linejoin:miter;stroke-opacity:1"><flowRegion
             id="flowRegion18085"><rect
               id="rect18087"
               width="132.91505"
               height="117.27799"
               x="81.081078"
               y="768.53284" /></flowRegion><flowPara
             id="flowPara18089" /></flowRoot>      </g>
      <path
         inkscape:connector-curvature="0"
         d="M 536.9358,663.3364 520.29808,663.3364 520.29808,646.69868 529.80473,646.69868 C 533.74213,646.69868 536.9358,649.89235 536.9358,653.82975 L 536.9358,663.3364 Z M 530.99469,634.81637 C 540.84014,634.81637 548.81811,642.79434 548.81811,652.63996 L 548.78096,653.82975 544.0132,653.82975 544.06687,652.63996 C 544.06687,645.422 538.21249,639.56769 530.99469,639.56769 L 529.80473,639.62145 529.80473,634.85352 530.99469,634.81637 Z M 578.5281,573.01665 C 583.12232,573.01665 586.84896,576.73919 586.84896,581.33759 586.84896,585.93199 583.12658,589.65437 578.5281,589.65437 573.92969,589.65437 570.21132,585.93199 570.21132,581.33759 570.21132,576.73919 573.93378,573.01665 578.5281,573.01665 Z M 562.48527,659.10569 566.55906,639.93538 C 566.64996,639.49332 567.38116,637.30355 567.88116,636.70857 L 580.26337,621.95487 576.7515,605.68075 573.80991,611.98955 C 572.9505,613.67106 572.3556,614.37356 571.51271,614.72889 L 559.84518,619.68246 C 558.33302,620.32285 556.58957,619.61644 555.94926,618.10837 555.30888,616.59621 556.0112,614.85276 557.52336,614.21237 L 568.36854,609.60562 568.42647,609.47349 574.96673,595.45099 C 575.56163,592.03003 578.94128,590.24935 582.98602,590.24935 585.20475,590.24935 588.32814,591.79873 588.50986,591.88963 L 604.64358,600.50389 C 605.63104,601.03276 606.34989,603.4621 606.38295,603.66042 L 608.83306,616.3731 C 609.14282,617.9845 608.08925,619.54206 606.47802,619.85199 604.8667,620.16183 603.30905,619.10827 602.99929,617.49695 L 600.60702,605.08986 591.67883,600.32209 C 594.03796,610.5642 595.57908,617.78617 595.69051,618.56287 L 598.14055,637.91915 610.61366,657.19705 C 611.68384,658.8496 611.2169,661.05999 609.56435,662.13008 607.9158,663.20418 605.70541,662.73333 604.6354,661.08478 L 592.67864,642.67456 C 592.33574,642.14577 591.19127,639.72879 591.07967,638.91487 L 589.19991,625.54937 585.75424,626.50369 573.59915,640.99304 573.53304,641.42275 569.45933,660.59731 C 569.04615,662.51839 567.15813,663.74958 565.2328,663.34475 563.30754,662.92748 562.07635,661.03102 562.48527,659.10569 Z M 532.18047,622.92989 C 547.93399,622.92989 560.7005,635.70049 560.7005,651.44992 L 560.60543,653.82558 555.83349,653.82558 555.94926,651.44992 C 555.94926,638.31997 545.30633,627.68121 532.18047,627.68121 L 529.80473,627.80099 529.80473,623.02914 532.18047,622.92989 Z M 532.18047,615.7989 529.80473,615.87736 529.80473,611.11369 532.18047,611.04341 C 538.79503,611.04341 545.03363,612.62993 550.5452,615.44766 550.19805,616.28637 550.00389,617.20781 550.00389,618.1703 550.00389,619.12888 550.19396,620.04188 550.53685,620.87659 545.1782,617.65396 538.89419,615.7989 532.18047,615.7989 Z M 567.45554,631.72604 564.2122,635.77487 C 562.26215,631.80041 559.59744,628.23896 556.37889,625.26423 L 557.14323,625.30555 C 558.82892,625.30555 560.37413,624.71892 561.59698,623.74381 563.85286,626.14435 565.82769,628.82559 567.45554,631.72604 Z"
         id="path13490"
         style="display:inline" />
      <g
         id="g25698"
         transform="matrix(1.9288794,0,0,1.9288793,167.58397,489.55704)"
         style="display:inline">
        <path
           id="path25634"
           d="M 41.595,58 16.405,58 C 14.525,58 13,56.475 13,54.595 L 13,3.405 C 13,1.525 14.525,0 16.405,0 L 41.594,0 C 43.475,0 45,1.525 45,3.405 L 45,54.594 C 45,56.475 43.475,58 41.595,58 Z"
           style="fill:#424a60"
           inkscape:connector-curvature="0" />
        <rect
           id="rect25636"
           height="40"
           width="32"
           style="fill:#e7eced"
           y="6"
           x="13" />
        <circle
           id="circle25638"
           r="3"
           cy="52"
           cx="29"
           style="fill:#262b35" />
        <path
           id="path25640"
           d="M 29,4 25,4 C 24.447,4 24,3.553 24,3 24,2.447 24.447,2 25,2 L 29,2 C 29.553,2 30,2.447 30,3 30,3.553 29.553,4 29,4 Z"
           style="fill:#262b35"
           inkscape:connector-curvature="0" />
        <path
           id="path25642"
           d="M 33,4 32,4 C 31.447,4 31,3.553 31,3 31,2.447 31.447,2 32,2 L 33,2 C 33.553,2 34,2.447 34,3 34,3.553 33.553,4 33,4 Z"
           style="fill:#262b35"
           inkscape:connector-curvature="0" />
        <path
           id="path25644"
           d="M 30.962,17.019 27.038,17.019 C 26.465,17.019 26,16.554 26,15.981 L 26,12.057 C 26,11.484 26.465,11.019 27.038,11.019 L 30.962,11.019 C 31.535,11.019 32,11.484 32,12.057 L 32,15.981 C 32,16.554 31.535,17.019 30.962,17.019 Z"
           style="fill:#3083c9"
           inkscape:connector-curvature="0" />
        <path
           id="path25646"
           d="M 21.962,17.019 18.038,17.019 C 17.465,17.019 17,16.554 17,15.981 L 17,12.057 C 17,11.484 17.465,11.019 18.038,11.019 L 21.962,11.019 C 22.535,11.019 23,11.484 23,12.057 L 23,15.981 C 23,16.554 22.535,17.019 21.962,17.019 Z"
           style="fill:#88c057"
           inkscape:connector-curvature="0" />
        <path
           id="path25648"
           d="M 39.962,17.019 36.038,17.019 C 35.465,17.019 35,16.554 35,15.981 L 35,12.057 C 35,11.484 35.465,11.019 36.038,11.019 L 39.962,11.019 C 40.535,11.019 41,11.484 41,12.057 L 41,15.981 C 41,16.554 40.535,17.019 39.962,17.019 Z"
           style="fill:#dc691d"
           inkscape:connector-curvature="0" />
        <path
           id="path25650"
           d="M 30.962,26 27.038,26 C 26.465,26 26,25.535 26,24.962 L 26,21.038 C 26,20.465 26.465,20 27.038,20 L 30.962,20 C 31.535,20 32,20.465 32,21.038 L 32,24.962 C 32,25.535 31.535,26 30.962,26 Z"
           style="fill:#ebba16"
           inkscape:connector-curvature="0" />
        <path
           id="path25652"
           d="M 21.962,26 18.038,26 C 17.465,26 17,25.535 17,24.962 L 17,21.038 C 17,20.465 17.465,20 18.038,20 L 21.962,20 C 22.535,20 23,20.465 23,21.038 L 23,24.962 C 23,25.535 22.535,26 21.962,26 Z"
           style="fill:#7383bf"
           inkscape:connector-curvature="0" />
        <path
           id="path25654"
           d="M 39.962,26 36.038,26 C 35.465,26 35,25.535 35,24.962 L 35,21.038 C 35,20.465 35.465,20 36.038,20 L 39.962,20 C 40.535,20 41,20.465 41,21.038 L 41,24.962 C 41,25.535 40.535,26 39.962,26 Z"
           style="fill:#dd352e"
           inkscape:connector-curvature="0" />
        <path
           id="path25656"
           d="M 30.962,35 27.038,35 C 26.465,35 26,34.535 26,33.962 L 26,30.038 C 26,29.465 26.465,29 27.038,29 L 30.962,29 C 31.535,29 32,29.465 32,30.038 L 32,33.962 C 32,34.535 31.535,35 30.962,35 Z"
           style="fill:#a485be"
           inkscape:connector-curvature="0" />
        <path
           id="path25658"
           d="M 21.962,35 18.038,35 C 17.465,35 17,34.535 17,33.962 L 17,30.038 C 17,29.465 17.465,29 18.038,29 L 21.962,29 C 22.535,29 23,29.465 23,30.038 L 23,33.962 C 23,34.535 22.535,35 21.962,35 Z"
           style="fill:#ea6248"
           inkscape:connector-curvature="0" />
        <path
           id="path25660"
           d="M 39.962,35 36.038,35 C 35.465,35 35,34.535 35,33.962 L 35,30.038 C 35,29.465 35.465,29 36.038,29 L 39.962,29 C 40.535,29 41,29.465 41,30.038 L 41,33.962 C 41,34.535 40.535,35 39.962,35 Z"
           style="fill:#25ae88"
           inkscape:connector-curvature="0" />
        <g
           id="g25662" />
        <g
           id="g25664" />
        <g
           id="g25666" />
        <g
           id="g25668" />
        <g
           id="g25670" />
        <g
           id="g25672" />
        <g
           id="g25674" />
        <g
           id="g25676" />
        <g
           id="g25678" />
        <g
           id="g25680" />
        <g
           id="g25682" />
        <g
           id="g25684" />
        <g
           id="g25686" />
        <g
           id="g25688" />
        <g
           id="g25690" />
      </g>
      <g
         transform="matrix(1.1534598,0,0,1.1534598,52.571429,213.29077)"
         id="PL_x5F_iCloud_1_">
        <g
           id="g12354">
          <defs
             id="defs12356">
            <rect
               x="0"
               id="SVGID_1_"
               y="128"
               width="512"
               height="320" />
          </defs>
          <clipPath
             id="SVGID_2_">
            <use
               height="100%"
               width="100%"
               y="0"
               x="0"
               xlink:href="#SVGID_1_"
               style="overflow:visible"
               id="use12360" />
          </clipPath>
          <path
             inkscape:connector-curvature="0"
             style="fill:#929292"
             d="M 431.357,266.878 C 431.415,265.429 431.544,264 431.544,262.545 431.544,188.241 370.957,128 296.229,128 242.139,128 195.658,159.647 174,205.266 162.94,197.844 149.657,193.454 135.314,193.454 98.728,193.454 68.796,221.594 66.1,257.29 27.625,270.685 0,306.991 0,349.819 0,404.045 44.2,448 98.743,448 L 420.571,448 C 471.057,448 512,407.29 512,357.091 512,310.514 476.757,272.184 431.357,266.878 Z M 420.571,433.456 98.743,433.456 C 50.675,433.456 11.703,397.602 11.703,349.819 11.703,309.193 39.899,275.187 77.874,265.882 77.727,264.774 77.531,263.687 77.531,262.544 77.531,230.826 103.403,205.087 135.313,205.087 152.699,205.087 168.095,212.878 178.688,224.952 194.691,175.492 241.188,139.632 296.227,139.632 364.484,139.632 419.841,194.661 419.841,262.544 419.841,267.757 419.405,272.864 418.77,277.898 419.37,277.871 419.97,277.807 420.57,277.807 464.598,277.807 500.299,313.304 500.299,357.075 500.3,400.854 464.6,433.456 420.571,433.456 Z"
             id="path12362"
             clip-path="url(#SVGID_2_)" />
        </g>
      </g>
    </g>
  </g>
</svg>
